<svg width="22" height="22" viewBox="0 0 22 22" fill="none" xmlns="http://www.w3.org/2000/svg">
<path d="M11 22C17.0751 22 22 17.0751 22 11C22 4.92487 17.0751 0 11 0C4.92487 0 0 4.92487 0 11C0 17.0751 4.92487 22 11 22Z" fill="#11998E"/>
<g clip-path="url(#clip0_1458_14956)">
<path d="M15.9883 8.94003C15.9648 8.40869 15.8789 8.0434 15.7558 7.72687C15.6289 7.39088 15.4335 7.09007 15.1776 6.84001C14.9275 6.58605 14.6247 6.38872 14.2926 6.26372C13.9743 6.14064 13.6109 6.05471 13.0795 6.03129C12.5442 6.00588 12.3743 6 11.0166 6C9.65891 6 9.48897 6.00588 8.95565 6.0293C8.42431 6.05273 8.05902 6.13873 7.74257 6.26174C7.40651 6.38872 7.1057 6.58407 6.85563 6.84001C6.60168 7.09007 6.40442 7.39287 6.27935 7.72496C6.15626 8.0434 6.07034 8.4067 6.04691 8.93804C6.0215 9.47335 6.01562 9.64329 6.01562 11.001C6.01562 12.3587 6.0215 12.5286 6.04493 13.0619C6.06835 13.5933 6.15435 13.9586 6.27744 14.2751C6.40442 14.6111 6.60168 14.9119 6.85563 15.1619C7.1057 15.4159 7.40849 15.6132 7.74059 15.7382C8.05902 15.8613 8.42233 15.9472 8.95374 15.9707C9.48699 15.9942 9.65701 16 11.0147 16C12.3724 16 12.5423 15.9942 13.0756 15.9707C13.607 15.9472 13.9723 15.8613 14.2887 15.7382C14.9608 15.4784 15.4921 14.9471 15.7519 14.2751C15.875 13.9566 15.961 13.5933 15.9844 13.0619C16.0078 12.5286 16.0137 12.3587 16.0137 11.001C16.0137 9.64329 16.0117 9.47335 15.9883 8.94003ZM15.0878 13.0229C15.0662 13.5112 14.9842 13.775 14.9158 13.9508C14.7478 14.3864 14.402 14.7322 13.9664 14.9002C13.7906 14.9686 13.5249 15.0506 13.0385 15.0721C12.511 15.0956 12.3528 15.1014 11.0186 15.1014C9.68432 15.1014 9.52415 15.0956 8.99861 15.0721C8.51024 15.0506 8.24651 14.9686 8.0707 14.9002C7.8539 14.8201 7.65657 14.6931 7.4964 14.5271C7.33035 14.3649 7.20337 14.1695 7.12325 13.9528C7.05488 13.7769 6.97284 13.5112 6.9514 13.0248C6.9279 12.4974 6.9221 12.3391 6.9221 11.0049C6.9221 9.67061 6.9279 9.51044 6.9514 8.98497C6.97284 8.4966 7.05488 8.23287 7.12325 8.05706C7.20337 7.84019 7.33035 7.64293 7.49838 7.48268C7.66046 7.31663 7.85581 7.18965 8.07268 7.10961C8.2485 7.04123 8.5142 6.9592 9.0006 6.93768C9.52804 6.91426 9.68631 6.90838 11.0205 6.90838C12.3567 6.90838 12.5149 6.91426 13.0405 6.93768C13.5288 6.9592 13.7926 7.04123 13.9684 7.10961C14.1852 7.18965 14.3825 7.31663 14.5427 7.48268C14.7087 7.64484 14.8357 7.84019 14.9158 8.05706C14.9842 8.23287 15.0662 8.4985 15.0878 8.98497C15.1112 9.51242 15.1171 9.67061 15.1171 11.0049C15.1171 12.3391 15.1112 12.4954 15.0878 13.0229Z" fill="white"/>
<path d="M11.0181 8.43213C9.59988 8.43213 8.44922 9.58271 8.44922 11.001C8.44922 12.4193 9.59988 13.5699 11.0181 13.5699C12.4364 13.5699 13.5869 12.4193 13.5869 11.001C13.5869 9.58271 12.4364 8.43213 11.0181 8.43213ZM11.0181 12.6673C10.098 12.6673 9.35172 11.9211 9.35172 11.001C9.35172 10.0809 10.098 9.33463 11.0181 9.33463C11.9382 9.33463 12.6844 10.0809 12.6844 11.001C12.6844 11.9211 11.9382 12.6673 11.0181 12.6673Z" fill="white"/>
<path d="M14.2893 8.33067C14.2893 8.66185 14.0208 8.93038 13.6896 8.93038C13.3584 8.93038 13.0898 8.66185 13.0898 8.33067C13.0898 7.99941 13.3584 7.73096 13.6896 7.73096C14.0208 7.73096 14.2893 7.99941 14.2893 8.33067Z" fill="white"/>
</g>
<defs>
<clipPath id="clip0_1458_14956">
<rect width="10" height="10" fill="white" transform="translate(6 6)"/>
</clipPath>
</defs>
</svg>
