<svg width="22" height="22" viewBox="0 0 22 22" fill="none" xmlns="http://www.w3.org/2000/svg">
<path d="M11.0001 22C17.0752 22 22.0001 17.0751 22.0001 11C22.0001 4.92487 17.0752 0 11.0001 0C4.92489 0 0 4.92487 0 11C0 17.0751 4.92489 22 11.0001 22Z" fill="#11998E"/>
<path d="M15.6451 7.42871H6.35938L11.0022 11.253L15.6976 7.43943C15.6804 7.4344 15.6628 7.43082 15.6451 7.42871Z" fill="white"/>
<path d="M11.2253 11.9915C11.0938 12.0992 10.9044 12.0992 10.7729 11.9915L6 8.05933V14.2143C6 14.4116 6.1599 14.5715 6.35715 14.5715H15.6428C15.8401 14.5715 16 14.4116 16 14.2143V8.11219L11.2253 11.9915Z" fill="white"/>
</svg>
