<svg width="22" height="22" viewBox="0 0 22 22" fill="none" xmlns="http://www.w3.org/2000/svg">
<path d="M10.9999 22C17.075 22 21.9999 17.0751 21.9999 11C21.9999 4.92487 17.075 0 10.9999 0C4.92484 0 0 4.92487 0 11C0 17.0751 4.92484 22 10.9999 22Z" fill="#11998E"/>
<path d="M5.03341 10.7616L15.6392 6.67236C16.1314 6.49453 16.5613 6.79245 16.4018 7.53678L16.4028 7.53586L14.5969 16.0434C14.4631 16.6466 14.1047 16.7933 13.6033 16.5091L10.8533 14.4824L9.52688 15.7602C9.38022 15.9069 9.25647 16.0306 8.9723 16.0306L9.16755 13.232L14.2642 8.62761C14.486 8.43236 14.2147 8.32236 13.9223 8.5167L7.6239 12.4822L4.90874 11.6352C4.31933 11.4482 4.3065 11.0458 5.03341 10.7616Z" fill="white"/>
</svg>
