<svg width="22" height="22" viewBox="0 0 22 22" fill="none" xmlns="http://www.w3.org/2000/svg">
<path d="M10.9999 22C17.0749 22 21.9998 17.0751 21.9998 11C21.9998 4.92487 17.0749 0 10.9999 0C4.92481 0 0 4.92487 0 11C0 17.0751 4.92481 22 10.9999 22Z" fill="#11998E"/>
<path d="M16.8207 7.731L16.817 7.71647C16.5231 6.52826 15.1981 5.25329 13.9812 4.98804L13.9675 4.98521C11.9993 4.60975 10.0037 4.60975 8.03588 4.98521L8.02175 4.98804C6.80531 5.25329 5.48022 6.52835 5.18593 7.71647L5.18266 7.731C4.81932 9.39032 4.81932 11.0731 5.18266 12.7325L5.18593 12.747C5.46771 13.8845 6.69407 15.1009 7.86551 15.4354V16.7618C7.86551 17.2419 8.45053 17.4776 8.78319 17.1312L10.127 15.7343C10.4185 15.7506 10.7101 15.7597 11.0017 15.7597C11.9924 15.7597 12.9836 15.666 13.9675 15.4783L13.9812 15.4755C15.198 15.2102 16.5231 13.9352 16.817 12.747L16.8206 12.7325C17.184 11.0731 17.184 9.39041 16.8207 7.731ZM15.7572 12.4919C15.5609 13.2671 14.5549 14.2308 13.7555 14.4089C12.709 14.6079 11.6542 14.6929 10.6004 14.6637C10.5794 14.6631 10.5593 14.6713 10.5447 14.6863C10.3951 14.8398 9.56353 15.6936 9.56353 15.6936L8.51992 16.7647C8.44361 16.8443 8.30955 16.7901 8.30955 16.6804V14.4831C8.30955 14.4468 8.28364 14.416 8.24797 14.4089C8.24776 14.4089 8.24759 14.4089 8.24737 14.4088C7.44799 14.2308 6.44228 13.267 6.2457 12.4918C5.91866 10.992 5.91866 9.47149 6.2457 7.97162C6.44228 7.19642 7.44799 6.23272 8.24737 6.05466C10.0751 5.70704 11.9282 5.70704 13.7555 6.05466C14.5553 6.23272 15.561 7.19642 15.7572 7.97162C16.0846 9.47153 16.0846 10.992 15.7572 12.4919Z" fill="white"/>
<path d="M12.7385 13.5057C12.6157 13.4684 12.4986 13.4433 12.3897 13.3983C11.2626 12.9306 10.2254 12.3273 9.40377 11.4026C8.93653 10.8768 8.57083 10.2831 8.26172 9.65477C8.11511 9.35683 7.99158 9.04724 7.86564 8.73958C7.75082 8.45908 7.91995 8.1693 8.09801 7.95789C8.26511 7.75951 8.48017 7.60774 8.71306 7.49581C8.89481 7.4085 9.07408 7.45886 9.20685 7.6129C9.49379 7.94599 9.75744 8.2961 9.97082 8.68222C10.1021 8.91971 10.0661 9.21 9.82817 9.37161C9.77033 9.41088 9.71765 9.45703 9.66382 9.50138C9.61655 9.54026 9.57212 9.57954 9.53972 9.63217C9.48056 9.72847 9.47772 9.84212 9.51579 9.94683C9.80913 10.753 10.3036 11.3799 11.115 11.7176C11.2449 11.7716 11.3752 11.8345 11.5249 11.817C11.7754 11.7878 11.8565 11.513 12.0321 11.3694C12.2036 11.2291 12.4229 11.2273 12.6077 11.3442C12.7926 11.4613 12.9718 11.5868 13.15 11.7138C13.3248 11.8384 13.4989 11.9602 13.6602 12.1023C13.8153 12.2389 13.8687 12.4181 13.7813 12.6034C13.6215 12.9429 13.3888 13.2253 13.0533 13.4056C12.9585 13.4563 12.8454 13.4728 12.7385 13.5057C12.8454 13.4728 12.6157 13.4684 12.7385 13.5057Z" fill="white"/>
<path d="M11.004 7.10849C12.4782 7.14983 13.689 8.12818 13.9485 9.58568C13.9927 9.83404 14.0085 10.0879 14.0282 10.34C14.0364 10.446 13.9764 10.5467 13.862 10.5481C13.7438 10.5496 13.6907 10.4506 13.6829 10.3447C13.6678 10.135 13.6573 9.92419 13.6283 9.71622C13.4758 8.61799 12.6001 7.70941 11.5069 7.51446C11.3424 7.48511 11.1742 7.47742 11.0075 7.45993C10.9022 7.44889 10.7642 7.44253 10.7409 7.31156C10.7214 7.20178 10.814 7.11438 10.9185 7.10875C10.9469 7.10708 10.9754 7.10841 11.004 7.10849C10.9754 7.10841 12.4782 7.14983 11.004 7.10849Z" fill="white"/>
<path d="M13.2471 10.0119C13.2447 10.0304 13.2434 10.0736 13.2326 10.1144C13.1935 10.2623 12.969 10.2809 12.9174 10.1316C12.9021 10.0873 12.8998 10.0368 12.8997 9.98911C12.8992 9.6769 12.8313 9.36495 12.6739 9.09326C12.512 8.814 12.2647 8.57935 11.9747 8.43725C11.7993 8.3514 11.6097 8.29799 11.4174 8.26624C11.3334 8.25232 11.2485 8.24394 11.1641 8.23216C11.0618 8.21794 11.0071 8.15276 11.012 8.05195C11.0165 7.95751 11.0856 7.88949 11.1885 7.89537C11.5268 7.91454 11.8536 7.98776 12.1545 8.147C12.7661 8.47094 13.1155 8.98218 13.2175 9.66491C13.2221 9.69589 13.2295 9.72649 13.2318 9.75751C13.2376 9.83408 13.2413 9.91078 13.2471 10.0119C13.2413 9.91078 13.2447 10.0303 13.2471 10.0119Z" fill="white"/>
<path d="M12.3288 9.97688C12.2055 9.97911 12.1395 9.91079 12.1268 9.79778C12.118 9.71898 12.1109 9.63906 12.0921 9.56231C12.055 9.41119 11.9747 9.2712 11.8476 9.1786C11.7877 9.13491 11.7196 9.10307 11.6484 9.08244C11.558 9.05627 11.464 9.06349 11.3738 9.04141C11.2758 9.01739 11.2215 8.93798 11.237 8.84607C11.251 8.76237 11.3324 8.69705 11.4238 8.70371C11.9954 8.74496 12.4039 9.04046 12.4622 9.71335C12.4664 9.76083 12.4712 9.81097 12.4607 9.85648C12.4425 9.93412 12.385 9.9731 12.3288 9.97688C12.385 9.9731 12.2055 9.97907 12.3288 9.97688Z" fill="white"/>
<path d="M16.8179 7.73091L16.8142 7.71639C16.6495 7.05033 16.1606 6.35707 15.5485 5.82959L14.721 6.56298C15.213 6.95507 15.6346 7.49824 15.7544 7.9715C16.0819 9.47141 16.0819 10.9919 15.7544 12.4918C15.5582 13.267 14.5521 14.2307 13.7528 14.4088C12.7063 14.6078 11.6514 14.6928 10.5977 14.6637C10.5767 14.6631 10.5566 14.6712 10.542 14.6863C10.3924 14.8397 9.56082 15.6935 9.56082 15.6935L8.5172 16.7647C8.44089 16.8442 8.30683 16.7901 8.30683 16.6803V14.483C8.30683 14.4467 8.28092 14.4159 8.24526 14.4089C8.24504 14.4089 8.24487 14.4088 8.24466 14.4088C7.79035 14.3076 7.26962 13.9525 6.86847 13.5227L6.05078 14.2473C6.56146 14.8028 7.22012 15.2519 7.86267 15.4354V16.7618C7.86267 17.2419 8.44768 17.4776 8.78034 17.1312L10.1242 15.7343C10.4157 15.7506 10.7072 15.7597 10.9988 15.7597C11.9896 15.7597 12.9807 15.666 13.9646 15.4783L13.9783 15.4755C15.1952 15.2103 16.5203 13.9353 16.8142 12.7471L16.8178 12.7326C17.1812 11.0731 17.1812 9.39032 16.8179 7.73091Z" fill="white"/>
<path d="M12.7365 13.5059C12.8433 13.4729 12.6136 13.4685 12.7365 13.5059V13.5059Z" fill="white"/>
<path d="M13.6578 12.1021C13.4965 11.9601 13.3224 11.8382 13.1476 11.7136C12.9694 11.5866 12.7902 11.4611 12.6053 11.344C12.4205 11.2271 12.2013 11.2289 12.0297 11.3692C11.8541 11.5128 11.773 11.7876 11.5225 11.8169C11.3729 11.8343 11.2425 11.7713 11.1126 11.7174C10.6134 11.5097 10.2346 11.192 9.94828 10.791L9.33984 11.3303C9.36051 11.3542 9.38023 11.3788 9.40125 11.4024C10.2229 12.3271 11.2602 12.9304 12.3872 13.3981C12.496 13.4432 12.6131 13.4683 12.736 13.5055C12.6131 13.4682 12.8429 13.4727 12.736 13.5055C12.8429 13.4727 12.956 13.4561 13.0508 13.4053C13.3865 13.225 13.6191 12.9426 13.7789 12.6032C13.8663 12.4179 13.8129 12.2387 13.6578 12.1021Z" fill="white"/>
<path d="M11.008 7.10844C11.0068 7.10844 11.0056 7.10831 11.0043 7.10831C11.0031 7.10822 11.0047 7.10831 11.008 7.10844Z" fill="white"/>
<path d="M11.0039 7.10815C11.0052 7.10815 11.0064 7.10828 11.0076 7.10828C11.0894 7.11121 12.4201 7.14785 11.0039 7.10815Z" fill="white"/>
<path d="M13.1188 7.98486L12.8594 8.21479C13.267 8.61139 13.5481 9.13703 13.6285 9.71548C13.6573 9.92353 13.6679 10.1342 13.6831 10.344C13.6908 10.45 13.7439 10.5489 13.8622 10.5475C13.9766 10.5461 14.0366 10.4454 14.0283 10.3393C14.0086 10.0873 13.9929 9.83334 13.9487 9.58502C13.8351 8.94702 13.5392 8.40084 13.1188 7.98486Z" fill="white"/>
<path d="M13.2142 9.66539C13.1399 9.16789 12.9335 8.76193 12.5907 8.45264L12.332 8.68188C12.4658 8.8006 12.5815 8.94003 12.6706 9.09382C12.8281 9.36551 12.896 9.67746 12.8965 9.98967C12.8966 10.0374 12.8988 10.0878 12.9142 10.1322C12.9659 10.2816 13.1902 10.2631 13.2293 10.115C13.2402 10.0742 13.2414 10.0309 13.2439 10.0126C13.2414 10.031 13.2379 9.91147 13.2439 10.0126C13.2379 9.91147 13.2343 9.83473 13.2285 9.75807C13.2263 9.72692 13.2188 9.69632 13.2142 9.66539Z" fill="white"/>
<path d="M13.2415 10.0127C13.2357 9.91156 13.2391 10.031 13.2415 10.0127V10.0127Z" fill="white"/>
<path d="M12.3245 9.97729C12.3264 9.97716 12.3283 9.97617 12.3301 9.97595C12.3249 9.97595 12.3169 9.97608 12.3086 9.97638C12.314 9.97651 12.3188 9.97733 12.3245 9.97729Z" fill="white"/>
<path d="M12.3255 9.97649C12.32 9.97657 12.3151 9.97576 12.3098 9.97559C12.2831 9.97632 12.2555 9.97773 12.3255 9.97649Z" fill="white"/>
<path d="M12.3338 9.97595C12.3318 9.97617 12.33 9.97716 12.3281 9.97729C12.3427 9.9763 12.3414 9.97595 12.3338 9.97595Z" fill="white"/>
<path d="M12.068 8.91699L11.8047 9.1504C11.8192 9.15921 11.8334 9.1684 11.8472 9.17841C11.9743 9.27101 12.0546 9.411 12.0917 9.56212C12.1105 9.63887 12.1175 9.7187 12.1264 9.79759C12.1385 9.90557 12.1998 9.97196 12.3127 9.97583C12.3209 9.97561 12.329 9.97544 12.3341 9.9754C12.3884 9.96938 12.4428 9.93131 12.4602 9.8562C12.4708 9.81078 12.4659 9.76055 12.4618 9.71307C12.429 9.33688 12.2868 9.07877 12.068 8.91699Z" fill="white"/>
</svg>
