<svg width="22" height="22" viewBox="0 0 22 22" fill="none" xmlns="http://www.w3.org/2000/svg">
<circle cx="11" cy="11" r="11" fill="url(#paint0_linear_1458_14951)"/>
<path d="M16.5396 13.6803C16.5088 13.628 16.3182 13.208 15.4008 12.3449C14.4405 11.4411 14.5695 11.5878 15.7262 10.025C16.4307 9.07323 16.7124 8.49199 16.6242 8.24351C16.5404 8.00665 16.0222 8.06914 16.0222 8.06914L14.2993 8.07931C14.2993 8.07931 14.1717 8.06187 14.0764 8.11927C13.984 8.17594 13.9245 8.30672 13.9245 8.30672C13.9245 8.30672 13.6514 9.04344 13.2873 9.66973C12.5198 10.9913 12.2123 11.0611 12.0869 10.979C11.7952 10.7879 11.8683 10.2103 11.8683 9.80051C11.8683 8.5196 12.0597 7.98558 11.4949 7.84754C11.3072 7.80176 11.1695 7.77125 10.6901 7.76616C10.0752 7.75962 9.55415 7.76834 9.25959 7.91438C9.06322 8.01174 8.912 8.22898 9.00445 8.24133C9.11841 8.25659 9.37641 8.3118 9.5133 8.50071C9.69032 8.7441 9.68387 9.29192 9.68387 9.29192C9.68387 9.29192 9.78564 10.7995 9.44665 10.987C9.21373 11.1156 8.8948 10.8533 8.21037 9.65374C7.85991 9.03981 7.59474 8.36048 7.59474 8.36048C7.59474 8.36048 7.54386 8.23406 7.45284 8.16649C7.34247 8.08439 7.18767 8.05824 7.18767 8.05824L5.54933 8.06841C5.54933 8.06841 5.30351 8.07567 5.21321 8.18393C5.13294 8.28056 5.20676 8.47964 5.20676 8.47964C5.20676 8.47964 6.48962 11.5217 7.94162 13.0555C9.27393 14.4613 10.7861 14.3691 10.7861 14.3691H11.4713C11.4713 14.3691 11.6784 14.3458 11.7837 14.2303C11.8812 14.1242 11.8776 13.9251 11.8776 13.9251C11.8776 13.9251 11.864 12.993 12.2912 12.8557C12.7118 12.7205 13.2522 13.7566 13.8249 14.1555C14.2577 14.457 14.5867 14.3909 14.5867 14.3909L16.1182 14.3691C16.1182 14.3691 16.9195 14.3189 16.5396 13.6803Z" fill="white"/>
<defs>
<linearGradient id="paint0_linear_1458_14951" x1="11" y1="0" x2="11" y2="22" gradientUnits="userSpaceOnUse">
<stop stop-color="#11998E"/>
</linearGradient>
</defs>
</svg>
